:SAMPLES-PER-SECOND 25
:FULLY-SPECIFIED
:DEGREES
590
root  5.40848 74.709 -21.2864 -1.03726 -1.24929 0.123856
RightUpLeg  -18.5231 0.866921 1.76311
RightLeg  7.86825 -28.282 -3.57003
RightFoot  7.52934 1.00234 -5.71468
RightToes  2.84633e-005 7.89722e-005 -0.000426369
Spine  1.44137 -2.30443 1.61879
Spine1  2.71772 -4.45873 1.83651
HEad  36.7439 -1.5606 -9.42763
LeftShoulder1  -3.88251e-019 0 -3.92111e-022
LeftArm  -33.5391 0.974479 -86.6133
LeftForeArm  27.097 -1.03047 -0.345316
LeftHand  -1.0137 -4.68092 11.9457
RightShoulder  7.45443e-017 -2.42657e-020 1.96277e-018
RightArm  -31.1428 -20.5182 69.7455
RightForeArm  21.7612 0.80021 0.250367
RightHand  -1.04599 8.04669 -9.37179
LeftUpLeg  7.1894 -0.0835762 -4.57266
LeftLeg  20.7433 -3.84511 -1.28028
LeftFoot  -11.2983 0.0658881 5.66744
LeftToes  3.91355e-005 3.11907e-005 -4.10385e-006
591
root  5.25406 74.8536 -20.2499 -0.405701 -2.14083 -1.01026
RightUpLeg  -17.6938 1.83642 3.27488
RightLeg  8.50442 -28.1147 -3.92233
RightFoot  5.89591 0.816907 -5.11638
RightToes  2.84633e-005 7.89722e-005 -0.000426369
Spine  1.42148 -2.47476 2.44516
Spine1  2.61625 -4.7589 3.14547
HEad  36.8096 -0.87282 -8.75957
LeftShoulder1  -3.88251e-019 0 -3.92111e-022
LeftArm  -33.9667 2.33349 -87.6304
LeftForeArm  27.1787 1.79552 0.476651
LeftHand  -0.960969 -4.98193 11.0322
RightShoulder  7.45443e-017 -2.42657e-020 1.96277e-018
RightArm  -30.3878 -19.4011 68.8864
RightForeArm  20.1348 2.39654 1.37974
RightHand  -1.14591 8.39864 -9.98096
LeftUpLeg  6.36331 0.585739 -3.15812
LeftLeg  24.1915 -3.55792 -1.41322
LeftFoot  -9.8465 -0.00986055 5.29611
LeftToes  3.91355e-005 3.11907e-005 -4.10385e-006
592
root  5.05727 74.9732 -19.2544 0.239105 -3.0347 -1.75836
RightUpLeg  -16.535 2.67826 4.64044
RightLeg  8.25956 -27.893 -4.20256
RightFoot  4.59559 0.707985 -4.826
RightToes  2.84633e-005 7.89722e-005 -0.000426369
Spine  1.29301 -2.62432 3.01285
Spine1  2.29179 -4.98246 3.71848
HEad  36.9533 -0.0222333 -6.87677
LeftShoulder1  -3.88251e-019 0 -3.92111e-022
LeftArm  -34.2972 3.02088 -87.5089
LeftForeArm  28.4013 2.13396 1.39251
LeftHand  -0.769376 -4.9239 8.95006
RightShoulder  7.45443e-017 -2.42657e-020 1.96277e-018
RightArm  -29.8771 -19.2256 69.0038
RightForeArm  18.0525 5.22428 2.9951
RightHand  -1.46012 9.66487 -11.5982
LeftUpLeg  4.10296 3.10772 -1.49646
LeftLeg  29.9384 -4.11137 -2.2169
LeftFoot  -6.86484 -0.136239 4.49708
LeftToes  3.91355e-005 3.11907e-005 -4.10385e-006
593
root  4.85628 74.9423 -18.3 0.475494 -4.00469 -2.22452
RightUpLeg  -16.0515 3.29759 5.79865
RightLeg  10.2457 -27.1195 -5.487
RightFoot  2.63768 0.570681 -4.50531
RightToes  2.84633e-005 7.89722e-005 -0.000426369
Spine  1.35475 -2.5491 3.32322
Spine1  2.37276 -4.73497 3.82647
HEad  34.8266 0.0421376 -4.51494
LeftShoulder1  -3.88251e-019 0 -3.92111e-022
LeftArm  -34.9403 2.9071 -86.8136
LeftForeArm  31.1198 1.92968 3.32315
LeftHand  -0.625921 -4.65358 7.53597
RightShoulder  7.45443e-017 -2.42657e-020 1.96277e-018
RightArm  -28.9454 -19.738 69.5235
RightForeArm  16.2789 9.40646 5.3219
RightHand  -1.36918 9.59834 -10.9304
LeftUpLeg  0.352958 6.81432 0.120404
LeftLeg  38.7549 -4.1695 -3.21561
LeftFoot  -1.97189 -0.363431 4.4254
LeftToes  3.91355e-005 3.11907e-005 -4.10385e-006
594
root  4.67501 74.7297 -17.555 0.579651 -4.61931 -3.41464
RightUpLeg  -16.1396 4.27916 7.54784
RightLeg  13.2764 -27.1797 -7.24562
RightFoot  0.509688 0.42706 -4.07649
RightToes  2.84633e-005 7.89722e-005 -0.000426369
Spine  1.71033 -2.49846 4.02474
Spine1  3.04916 -4.58558 4.76973
HEad  33.7415 -1.42648 -4.79172
LeftShoulder1  -3.88251e-019 0 -3.92111e-022
LeftArm  -35.8931 3.38243 -86.2133
LeftForeArm  32.9339 1.87004 4.06952
LeftHand  -0.579128 -3.55245 7.77101
RightShoulder  7.45443e-017 -2.42657e-020 1.96277e-018
RightArm  -24.8648 -19.4348 69.8911
RightForeArm  13.6569 13.5286 6.68943
RightHand  -1.33805 10.1331 -10.3466
LeftUpLeg  -5.3906 9.23935 2.11212
LeftLeg  49.7822 -3.14658 -3.5715
LeftFoot  5.24152 -0.196177 1.3332
LeftToes  3.91355e-005 3.11907e-005 -4.10385e-006
595
root  4.57548 74.4274 -16.895 0.645081 -5.85694 -5.10184
RightUpLeg  -16.2052 5.10441 9.61625
RightLeg  16.205 -26.6048 -8.38667
RightFoot  -1.65688 0.266949 -3.27266
RightToes  2.84633e-005 7.89722e-005 -0.000426369
Spine  2.14472 -2.2302 4.78427
Spine1  3.91894 -4.0692 5.97005
HEad  35.7707 -4.45521 -6.89248
LeftShoulder1  -3.88251e-019 0 -3.92111e-022
LeftArm  -36.0251 4.71999 -85.6161
LeftForeArm  32.3449 1.89163 3.62304
LeftHand  -0.616144 -3.3195 8.45735
RightShoulder  7.45443e-017 -2.42657e-020 1.96277e-018
RightArm  -18.7568 -17.8218 70.305
RightForeArm  10.6606 16.32 6.93817
RightHand  -1.34113 10.9721 -9.87943
LeftUpLeg  -11.9681 9.67163 3.81816
LeftLeg  60.2808 -1.02547 -1.3266
LeftFoot  11.6773 0.634939 -3.45924
LeftToes  3.91355e-005 3.11907e-005 -4.10385e-006
596
root  4.52675 74.2616 -16.1324 0.314606 -8.89679 -6.32368
RightUpLeg  -15.0442 5.55517 11.4127
RightLeg  17.8555 -24.3279 -8.43898
RightFoot  -3.61532 0.1743 -2.94198
RightToes  2.84633e-005 7.89722e-005 -0.000426369
Spine  2.65121 -1.48526 5.39738
Spine1  4.96024 -2.55063 6.56204
HEad  35.8425 -6.45001 -6.61423
LeftShoulder1  -3.88251e-019 0 -3.92111e-022
LeftArm  -35.8614 6.16813 -84.978
LeftForeArm  29.6155 1.98412 2.71742
LeftHand  -0.71388 -3.9875 9.10073
RightShoulder  7.45443e-017 -2.42657e-020 1.96277e-018
RightArm  -14.6044 -15.8001 70.9265
RightForeArm  9.80115 18.0013 6.55974
RightHand  -1.28658 10.7384 -9.6233
LeftUpLeg  -16.4713 9.82372 5.03594
LeftLeg  66.3351 0.900551 2.98869
LeftFoot  6.74627 0.192811 -1.46956
LeftToes  3.91355e-005 3.11907e-005 -4.10385e-006
597
root  4.52876 74.2774 -15.3847 0.376007 -12.6801 -6.41988
RightUpLeg  -14.0351 6.05935 11.8895
RightLeg  18.7401 -20.9343 -7.91543
RightFoot  -5.06264 0.115624 -2.72988
RightToes  2.84633e-005 7.89722e-005 -0.000426369
Spine  2.83383 -0.604305 5.61982
Spine1  5.41701 -0.876857 6.67916
HEad  36.3328 -6.74009 -6.10595
LeftShoulder1  -3.88251e-019 0 -3.92111e-022
LeftArm  -36.0075 7.43243 -84.4244
LeftForeArm  27.2778 2.07564 1.67367
LeftHand  -0.795507 -4.39384 9.71165
RightShoulder  7.45443e-017 -2.42657e-020 1.96277e-018
RightArm  -13.7492 -13.6186 71.3891
RightForeArm  10.1376 18.0836 6.50845
RightHand  -1.40909 10.7615 -10.4843
LeftUpLeg  -20.22 7.90164 5.21437
LeftLeg  66.6076 1.85434 5.43608
LeftFoot  0.999301 -0.138771 1.14475
LeftToes  3.91355e-005 3.11907e-005 -4.10385e-006
